<svg xmlns="http://www.w3.org/2000/svg" width="24" height="24" fill="none" viewBox="0 0 24 24">
  <path fill="#C7C7CD" fill-rule="evenodd" d="M18.272 3.128 2.75 18.712a1.2 1.2 0 0 0-.35.846v2.035l.004.006.001.001H4.42a1.2 1.2 0 0 0 .85-.353l15.559-15.62c1.08-1.085.86-2.166.346-2.723A1.572 1.572 0 0 0 20.04 2.4c-.454-.011-1.067.152-1.77.727Zm4.664-1.854c1.442 1.56 1.524 4.107-.408 6.046L6.97 22.94A3.6 3.6 0 0 1 4.42 24H2.404A2.409 2.409 0 0 1 0 21.59v-2.032a3.6 3.6 0 0 1 1.05-2.54L16.611 1.393c.025-.025.052-.05.08-.073C17.78.41 18.959-.026 20.097 0a3.971 3.971 0 0 1 2.838 1.273Z" clip-rule="evenodd"/>
  <path fill="#C7C7CD" fill-rule="evenodd" d="M15.123 3.123a1.2 1.2 0 0 1 1.697 0l4.101 4.102a1.2 1.2 0 0 1 0 1.697C20.453 9.39 4.955 24.128 4.486 23.66L.385 19.558c-.469-.468 14.27-15.966 14.738-16.435Z" clip-rule="evenodd"/>
</svg>
